<svg width="28" height="27" viewBox="0 0 28 27" fill="none" xmlns="http://www.w3.org/2000/svg">
<rect x="0.5" y="0.5" width="27" height="26" rx="13" stroke="#FF7D29"/>
<path fill-rule="evenodd" clip-rule="evenodd" d="M18.2002 10.8C18.2002 13.0368 16.3198 14.85 14.0002 14.85C11.6806 14.85 9.80017 13.0368 9.80017 10.8C9.80017 8.56325 11.6806 6.75 14.0002 6.75C16.3198 6.75 18.2002 8.56325 18.2002 10.8ZM16.8002 10.8C16.8002 12.2912 15.5466 13.5 14.0002 13.5C12.4538 13.5 11.2002 12.2912 11.2002 10.8C11.2002 9.30883 12.4538 8.1 14.0002 8.1C15.5466 8.1 16.8002 9.30883 16.8002 10.8Z" fill="#FF7D29"/>
<path d="M14.0002 16.875C9.4681 16.875 5.60666 19.4592 4.13574 23.0796C4.49407 23.4227 4.87154 23.7473 5.26647 24.0516C6.36179 20.7277 9.79787 18.225 14.0002 18.225C18.2025 18.225 21.6386 20.7277 22.7339 24.0516C23.1288 23.7473 23.5063 23.4227 23.8646 23.0796C22.3937 19.4592 18.5322 16.875 14.0002 16.875Z" fill="#FF7D29"/>
</svg>
